<?xml version="1.0" standalone="no"?>
<!DOCTYPE svg PUBLIC "-//W3C//DTD SVG 20010904//EN"
 "http://www.w3.org/TR/2001/REC-SVG-20010904/DTD/svg10.dtd">
<svg version="1.0" xmlns="http://www.w3.org/2000/svg"
 width="1000.000000pt" height="1000.000000pt" viewBox="0 0 1000.000000 1000.000000"
 preserveAspectRatio="xMidYMid meet">
<metadata>
Created by potrace 1.11, written by Peter Selinger 2001-2013
</metadata>
<g transform="translate(0.000000,1000.000000) scale(0.100000,-0.100000)"
fill="#000000" stroke="none">
<path d="M0 5000 l0 -5000 5000 0 5000 0 0 1455 0 1455 -29 0 c-16 0 -31 -5
-33 -11 -2 -6 -17 -12 -34 -13 -17 -1 -39 -10 -49 -19 -9 -9 -20 -15 -24 -13
-4 3 -7 -4 -7 -15 0 -13 8 -19 26 -20 18 -1 20 -3 7 -6 -13 -3 -17 -11 -14
-24 5 -17 3 -18 -9 -8 -12 10 -21 8 -44 -9 -35 -26 -46 -27 -54 -6 -3 8 -10
13 -15 10 -13 -9 -42 4 -35 16 3 5 12 7 20 4 10 -4 14 2 14 18 0 17 7 25 26
29 17 3 24 0 21 -7 -6 -15 30 -19 39 -4 3 5 1 15 -5 21 -9 9 -11 8 -6 -5 10
-26 -10 -22 -23 5 -6 12 -11 16 -11 10 -1 -17 -28 -17 -34 0 -3 7 -6 4 -6 -7
-1 -15 -7 -18 -33 -13 -18 3 -27 3 -20 0 20 -8 14 -32 -8 -28 -11 2 -20 0 -20
-6 0 -16 -20 -10 -46 16 -14 14 -31 22 -39 19 -8 -4 -15 -1 -15 5 0 18 -28 12
-43 -10 -20 -28 -117 -39 -117 -13 0 10 -8 26 -17 37 -10 11 -12 17 -5 13 6
-4 12 -2 12 4 0 6 -10 8 -27 4 -25 -7 -27 -6 -14 9 12 15 11 17 -9 17 -16 0
-20 4 -16 15 5 13 2 14 -15 4 -18 -9 -19 -9 -10 9 9 16 7 21 -12 27 -12 4 -25
7 -28 6 -4 0 -5 9 -2 19 4 15 14 20 39 20 37 0 55 18 30 32 -9 5 -16 17 -16
26 0 15 2 15 10 2 8 -12 10 -11 10 8 l0 23 22 -21 c19 -18 23 -18 31 -5 5 9 6
23 3 31 -5 13 4 15 59 12 36 -1 65 -1 65 2 0 3 24 11 53 18 28 7 53 16 55 21
2 6 16 5 33 -1 22 -8 34 -7 42 1 16 16 36 14 55 -5 15 -15 16 -15 22 2 6 16 8
16 16 3 5 -9 17 -18 27 -22 13 -5 16 -3 11 6 -6 9 -5 9 7 1 8 -7 42 -11 82 -9
37 1 70 -1 72 -5 2 -3 -6 -6 -18 -6 -13 1 -23 -6 -25 -17 -2 -10 3 -17 12 -17
8 0 23 -11 34 -25 11 -14 23 -25 26 -25 3 0 6 1566 6 3480 l0 3480 -5000 0
-5000 0 0 -5000z m3540 1995 c0 -33 -2 -35 -35 -35 -33 0 -35 2 -35 35 0 33 2
35 35 35 33 0 35 -2 35 -35z m2500 0 c0 -33 -2 -35 -35 -35 -33 0 -35 2 -35
35 0 33 2 35 35 35 33 0 35 -2 35 -35z m1000 0 c0 -33 -2 -35 -35 -35 -33 0
-35 2 -35 35 0 33 2 35 35 35 33 0 35 -2 35 -35z m-1640 -1995 l0 -2000 -400
0 -400 0 0 2000 0 2000 400 0 400 0 0 -2000z m-1960 1795 c0 -33 -2 -35 -35
-35 -33 0 -35 2 -35 35 0 33 2 35 35 35 33 0 35 -2 35 -35z m200 0 c0 -33 -2
-35 -35 -35 -33 0 -35 2 -35 35 0 33 2 35 35 35 33 0 35 -2 35 -35z m2400 0
c0 -33 -2 -35 -35 -35 -33 0 -35 2 -35 35 0 33 2 35 35 35 33 0 35 -2 35 -35z
m100 0 c0 -33 -2 -35 -35 -35 -33 0 -35 2 -35 35 0 33 2 35 35 35 33 0 35 -2
35 -35z m800 0 c0 -33 -2 -35 -35 -35 -33 0 -35 2 -35 35 0 33 2 35 35 35 33
0 35 -2 35 -35z m100 0 c0 -33 -2 -35 -35 -35 -33 0 -35 2 -35 35 0 33 2 35
35 35 33 0 35 -2 35 -35z m-3700 -200 c0 -33 -2 -35 -35 -35 -33 0 -35 2 -35
35 0 33 2 35 35 35 33 0 35 -2 35 -35z m400 0 c0 -33 -2 -35 -35 -35 -33 0
-35 2 -35 35 0 33 2 35 35 35 33 0 35 -2 35 -35z m2300 0 c0 -33 -2 -35 -35
-35 -33 0 -35 2 -35 35 0 33 2 35 35 35 33 0 35 -2 35 -35z m100 0 c0 -33 -2
-35 -35 -35 -33 0 -35 2 -35 35 0 33 2 35 35 35 33 0 35 -2 35 -35z m800 0 c0
-33 -2 -35 -35 -35 -33 0 -35 2 -35 35 0 33 2 35 35 35 33 0 35 -2 35 -35z
m100 0 c0 -33 -2 -35 -35 -35 -33 0 -35 2 -35 35 0 33 2 35 35 35 33 0 35 -2
35 -35z m-3800 -199 c0 -27 -4 -35 -23 -38 -36 -7 -47 1 -47 38 0 32 2 34 35
34 33 0 35 -2 35 -34z m600 -1 c0 -33 -2 -35 -35 -35 -33 0 -35 2 -35 35 0 33
2 35 35 35 33 0 35 -2 35 -35z m2200 0 c0 -33 -2 -35 -35 -35 -33 0 -35 2 -35
35 0 33 2 35 35 35 33 0 35 -2 35 -35z m200 0 c0 -33 -2 -35 -35 -35 -33 0
-35 2 -35 35 0 33 2 35 35 35 33 0 35 -2 35 -35z m600 0 c0 -33 -2 -35 -35
-35 -33 0 -35 2 -35 35 0 33 2 35 35 35 33 0 35 -2 35 -35z m200 0 c0 -33 -2
-35 -35 -35 -33 0 -35 2 -35 35 0 33 2 35 35 35 33 0 35 -2 35 -35z m-3806
-56 c-3 -6 4 -5 15 3 15 9 24 10 29 2 11 -17 34 -22 65 -13 18 5 27 4 27 -4 0
-8 19 -12 55 -11 30 1 55 -2 55 -6 0 -4 15 -10 33 -14 23 -5 28 -9 18 -15 -8
-5 1 -8 25 -7 36 1 39 -1 38 -25 -1 -21 3 -25 18 -21 10 2 18 8 18 13 0 18 30
8 41 -13 23 -43 58 -80 70 -73 5 4 10 -11 11 -32 1 -36 3 -52 8 -63 7 -16 4
-97 -4 -93 -5 4 -7 -4 -3 -17 4 -15 -1 -29 -17 -44 -13 -11 -27 -31 -31 -44
-4 -13 -9 -21 -12 -18 -9 9 -44 -14 -38 -25 4 -5 1 -8 -7 -7 -7 2 -12 -2 -11
-9 2 -7 -6 -10 -16 -8 -16 3 -55 -28 -46 -37 2 -2 -4 -4 -13 -5 -55 -3 -118
-18 -128 -31 -7 -10 -23 -13 -47 -10 -19 2 -34 1 -31 -3 4 -7 -64 -24 -79 -20
-5 1 -42 3 -83 6 -76 4 -98 10 -89 26 4 5 -8 9 -24 9 -17 0 -31 4 -31 10 0 5
-6 7 -14 4 -8 -3 -17 -1 -21 5 -3 6 -17 8 -31 5 -17 -5 -24 -2 -24 9 0 12 -9
14 -42 10 -30 -5 -39 -3 -34 6 4 6 0 18 -8 27 -12 12 -16 12 -16 2 0 -11 -2
-11 -9 0 -4 8 -11 13 -15 13 -12 -2 -45 38 -34 41 14 5 1 28 -15 28 -7 0 -6
-4 3 -10 8 -5 10 -10 4 -10 -6 0 -17 6 -23 14 -9 11 -9 15 1 19 8 4 9 8 3 14
-5 4 -12 17 -13 28 -5 24 -32 44 -51 37 -11 -4 -12 1 -7 24 4 16 15 37 23 46
9 10 16 31 17 47 1 16 3 29 6 29 24 -2 32 4 27 22 -3 11 -1 20 5 20 6 0 8 7 5
15 -4 9 5 21 23 31 15 10 26 22 24 28 -3 7 3 12 13 12 37 2 78 14 88 26 5 7
26 14 45 14 44 2 131 13 148 19 7 3 10 10 7 15 -4 7 5 9 25 5 17 -3 29 -2 27
2 -3 5 8 9 24 10 18 1 27 -2 23 -8z m706 -144 c0 -33 -2 -35 -35 -35 -33 0
-35 2 -35 35 0 33 2 35 35 35 33 0 35 -2 35 -35z m2100 0 c0 -33 -2 -35 -35
-35 -33 0 -35 2 -35 35 0 33 2 35 35 35 33 0 35 -2 35 -35z m200 0 c0 -33 -2
-35 -35 -35 -33 0 -35 2 -35 35 0 33 2 35 35 35 33 0 35 -2 35 -35z m600 0 c0
-33 -2 -35 -35 -35 -33 0 -35 2 -35 35 0 33 2 35 35 35 33 0 35 -2 35 -35z
m200 0 c0 -33 -2 -35 -35 -35 -33 0 -35 2 -35 35 0 33 2 35 35 35 33 0 35 -2
35 -35z m-3000 -200 c0 -33 -2 -35 -35 -35 -33 0 -35 2 -35 35 0 33 2 35 35
35 33 0 35 -2 35 -35z m2000 0 c0 -33 -2 -35 -35 -35 -33 0 -35 2 -35 35 0 33
2 35 35 35 33 0 35 -2 35 -35z m300 0 c0 -33 -2 -35 -35 -35 -33 0 -35 2 -35
35 0 33 2 35 35 35 33 0 35 -2 35 -35z m400 0 c0 -33 -2 -35 -35 -35 -33 0
-35 2 -35 35 0 33 2 35 35 35 33 0 35 -2 35 -35z m300 0 c0 -33 -2 -35 -35
-35 -33 0 -35 2 -35 35 0 33 2 35 35 35 33 0 35 -2 35 -35z m-4310 -89 c0 -3
-4 -8 -10 -11 -5 -3 -10 -1 -10 4 0 6 5 11 10 11 6 0 10 -2 10 -4z m1310 -111
c0 -33 -2 -35 -35 -35 -33 0 -35 2 -35 35 0 33 2 35 35 35 33 0 35 -2 35 -35z
m2000 0 c0 -33 -2 -35 -35 -35 -33 0 -35 2 -35 35 0 33 2 35 35 35 33 0 35 -2
35 -35z m300 0 c0 -33 -2 -35 -35 -35 -33 0 -35 2 -35 35 0 33 2 35 35 35 33
0 35 -2 35 -35z m400 0 c0 -33 -2 -35 -35 -35 -33 0 -35 2 -35 35 0 33 2 35
35 35 33 0 35 -2 35 -35z m300 0 c0 -33 -2 -35 -35 -35 -33 0 -35 2 -35 35 0
33 2 35 35 35 33 0 35 -2 35 -35z m-4000 -200 c0 -33 -2 -35 -35 -35 -33 0
-35 2 -35 35 0 33 2 35 35 35 33 0 35 -2 35 -35z m1000 0 c0 -33 -2 -35 -35
-35 -33 0 -35 2 -35 35 0 33 2 35 35 35 33 0 35 -2 35 -35z m2000 0 c0 -33 -2
-35 -35 -35 -33 0 -35 2 -35 35 0 33 2 35 35 35 33 0 35 -2 35 -35z m400 0 c0
-33 -2 -35 -35 -35 -33 0 -35 2 -35 35 0 33 2 35 35 35 33 0 35 -2 35 -35z
m200 0 c0 -33 -2 -35 -35 -35 -33 0 -35 2 -35 35 0 33 2 35 35 35 33 0 35 -2
35 -35z m400 0 c0 -33 -2 -35 -35 -35 -33 0 -35 2 -35 35 0 33 2 35 35 35 33
0 35 -2 35 -35z m-4000 -200 c0 -33 -2 -35 -35 -35 -33 0 -35 2 -35 35 0 33 2
35 35 35 33 0 35 -2 35 -35z m1000 0 c0 -33 -2 -35 -35 -35 -33 0 -35 2 -35
35 0 33 2 35 35 35 33 0 35 -2 35 -35z m2000 0 c0 -33 -2 -35 -35 -35 -33 0
-35 2 -35 35 0 33 2 35 35 35 33 0 35 -2 35 -35z m400 0 c0 -33 -2 -35 -35
-35 -33 0 -35 2 -35 35 0 33 2 35 35 35 33 0 35 -2 35 -35z m200 0 c0 -33 -2
-35 -35 -35 -33 0 -35 2 -35 35 0 33 2 35 35 35 33 0 35 -2 35 -35z m400 0 c0
-33 -2 -35 -35 -35 -33 0 -35 2 -35 35 0 33 2 35 35 35 33 0 35 -2 35 -35z
m-4000 -200 c0 -33 -2 -35 -35 -35 -33 0 -35 2 -35 35 0 33 2 35 35 35 33 0
35 -2 35 -35z m1000 0 c0 -33 -2 -35 -35 -35 -33 0 -35 2 -35 35 0 33 2 35 35
35 33 0 35 -2 35 -35z m2000 0 c0 -33 -2 -35 -35 -35 -33 0 -35 2 -35 35 0 33
2 35 35 35 33 0 35 -2 35 -35z m500 0 c0 -33 -2 -35 -35 -35 -33 0 -35 2 -35
35 0 33 2 35 35 35 33 0 35 -2 35 -35z m500 0 c0 -33 -2 -35 -35 -35 -33 0
-35 2 -35 35 0 33 2 35 35 35 33 0 35 -2 35 -35z m-4000 -200 c0 -33 -2 -35
-35 -35 -33 0 -35 2 -35 35 0 33 2 35 35 35 33 0 35 -2 35 -35z m200 0 c0 -33
-2 -35 -35 -35 -33 0 -35 2 -35 35 0 33 2 35 35 35 33 0 35 -2 35 -35z m200 0
c0 -33 -2 -35 -35 -35 -33 0 -35 2 -35 35 0 33 2 35 35 35 33 0 35 -2 35 -35z
m200 0 c0 -33 -2 -35 -35 -35 -33 0 -35 2 -35 35 0 33 2 35 35 35 33 0 35 -2
35 -35z m200 0 c0 -33 -2 -35 -35 -35 -33 0 -35 2 -35 35 0 33 2 35 35 35 33
0 35 -2 35 -35z m200 0 c0 -33 -2 -35 -35 -35 -33 0 -35 2 -35 35 0 33 2 35
35 35 33 0 35 -2 35 -35z m2000 0 c0 -33 -2 -35 -35 -35 -33 0 -35 2 -35 35 0
33 2 35 35 35 33 0 35 -2 35 -35z m500 0 c0 -33 -2 -35 -35 -35 -33 0 -35 2
-35 35 0 33 2 35 35 35 33 0 35 -2 35 -35z m500 0 c0 -33 -2 -35 -35 -35 -33
0 -35 2 -35 35 0 33 2 35 35 35 33 0 35 -2 35 -35z m1760 -145 c0 -6 7 -10 15
-10 8 0 15 -4 15 -10 0 -5 -4 -10 -10 -10 -5 0 -10 -4 -10 -10 0 -5 6 -7 14
-4 8 3 22 -9 36 -30 12 -20 25 -36 29 -36 4 0 5 -14 3 -31 -3 -21 -1 -30 6
-25 6 3 9 -1 7 -11 -3 -18 17 -56 42 -81 7 -7 13 -20 13 -28 0 -8 4 -13 9 -9
5 3 12 1 16 -5 3 -5 -2 -10 -12 -10 -15 0 -16 -2 -3 -10 8 -5 11 -10 6 -10 -5
0 -3 -6 3 -14 6 -8 11 -18 10 -22 -1 -5 1 -17 4 -26 4 -10 10 -26 14 -35 3
-10 7 -20 8 -23 1 -3 8 -18 15 -35 19 -44 22 -65 7 -65 -9 0 -9 -2 1 -9 8 -5
17 -44 23 -102 5 -52 12 -110 16 -129 9 -40 8 -128 -2 -250 -4 -47 -8 -103
-10 -125 -4 -62 -4 -63 -21 -79 -14 -15 -13 -17 16 -29 l31 -14 -53 -12 c-47
-12 -60 -11 -113 7 -33 10 -97 38 -143 61 l-83 42 -57 -44 c-60 -46 -148 -87
-188 -87 -12 0 -25 -6 -27 -12 -4 -10 -8 -10 -15 0 -7 11 -10 9 -15 -7 -4 -18
-9 -19 -38 -11 -33 10 -79 4 -79 -9 0 -15 -97 -11 -134 4 -27 11 -41 13 -50 6
-7 -6 -15 -9 -17 -7 -2 3 -27 7 -55 9 -28 3 -66 11 -85 19 -19 9 -47 20 -62
27 -15 6 -26 15 -23 20 3 5 -5 9 -19 9 -40 0 -81 21 -94 49 -7 16 -17 23 -26
19 -9 -3 -15 0 -15 8 0 8 -7 17 -16 20 -9 4 -14 9 -11 12 6 7 -5 22 -43 59
l-25 25 25 0 c21 0 19 4 -20 26 -62 35 -105 86 -130 150 -28 75 -25 118 10
188 27 54 82 116 101 116 4 0 15 7 24 16 11 12 13 20 5 29 -8 10 -6 15 10 20
11 3 18 11 14 16 -8 13 16 70 26 64 5 -3 14 12 20 32 7 21 17 43 24 48 6 6 20
27 30 48 11 20 23 37 28 37 5 0 6 5 3 10 -3 6 -1 10 5 10 16 0 89 77 81 85 -3
4 -1 6 4 4 14 -3 64 18 81 36 13 13 42 20 67 16 4 0 7 3 7 8 0 5 12 9 27 9 15
0 29 5 31 11 2 6 8 8 13 5 6 -3 16 -1 23 5 7 6 23 8 37 5 60 -15 89 -16 89 -4
0 10 5 9 18 -2 22 -20 62 -32 62 -19 0 16 60 -8 114 -47 67 -49 85 -49 119 -1
30 41 118 122 177 162 34 23 70 22 70 -3z m-5760 -55 c0 -33 -2 -35 -35 -35
-33 0 -35 2 -35 35 0 33 2 35 35 35 33 0 35 -2 35 -35z m1000 0 c0 -33 -2 -35
-35 -35 -33 0 -35 2 -35 35 0 33 2 35 35 35 33 0 35 -2 35 -35z m2000 0 c0
-33 -2 -35 -35 -35 -33 0 -35 2 -35 35 0 33 2 35 35 35 33 0 35 -2 35 -35z
m1000 0 c0 -33 -2 -35 -35 -35 -33 0 -35 2 -35 35 0 33 2 35 35 35 33 0 35 -2
35 -35z m-4000 -200 c0 -33 -2 -35 -35 -35 -33 0 -35 2 -35 35 0 33 2 35 35
35 33 0 35 -2 35 -35z m1000 0 c0 -33 -2 -35 -35 -35 -33 0 -35 2 -35 35 0 33
2 35 35 35 33 0 35 -2 35 -35z m2000 0 c0 -33 -2 -35 -35 -35 -33 0 -35 2 -35
35 0 33 2 35 35 35 33 0 35 -2 35 -35z m1000 0 c0 -33 -2 -35 -35 -35 -33 0
-35 2 -35 35 0 33 2 35 35 35 33 0 35 -2 35 -35z m-4000 -200 c0 -33 -2 -35
-35 -35 -33 0 -35 2 -35 35 0 33 2 35 35 35 33 0 35 -2 35 -35z m1000 0 c0
-33 -2 -35 -35 -35 -33 0 -35 2 -35 35 0 33 2 35 35 35 33 0 35 -2 35 -35z
m2000 0 c0 -33 -2 -35 -35 -35 -33 0 -35 2 -35 35 0 33 2 35 35 35 33 0 35 -2
35 -35z m1000 0 c0 -33 -2 -35 -35 -35 -33 0 -35 2 -35 35 0 33 2 35 35 35 33
0 35 -2 35 -35z m-4000 -200 c0 -33 -2 -35 -35 -35 -33 0 -35 2 -35 35 0 33 2
35 35 35 33 0 35 -2 35 -35z m1000 0 c0 -33 -2 -35 -35 -35 -33 0 -35 2 -35
35 0 33 2 35 35 35 33 0 35 -2 35 -35z m2000 0 c0 -33 -2 -35 -35 -35 -33 0
-35 2 -35 35 0 33 2 35 35 35 33 0 35 -2 35 -35z m1000 0 c0 -33 -2 -35 -35
-35 -33 0 -35 2 -35 35 0 33 2 35 35 35 33 0 35 -2 35 -35z m-4000 -200 c0
-33 -2 -35 -35 -35 -33 0 -35 2 -35 35 0 33 2 35 35 35 33 0 35 -2 35 -35z
m1000 0 c0 -33 -2 -35 -35 -35 -33 0 -35 2 -35 35 0 33 2 35 35 35 33 0 35 -2
35 -35z m2000 0 c0 -33 -2 -35 -35 -35 -33 0 -35 2 -35 35 0 33 2 35 35 35 33
0 35 -2 35 -35z m1000 0 c0 -33 -2 -35 -35 -35 -33 0 -35 2 -35 35 0 33 2 35
35 35 33 0 35 -2 35 -35z m-4000 -200 c0 -33 -2 -35 -35 -35 -33 0 -35 2 -35
35 0 33 2 35 35 35 33 0 35 -2 35 -35z m1000 0 c0 -33 -2 -35 -35 -35 -33 0
-35 2 -35 35 0 33 2 35 35 35 33 0 35 -2 35 -35z m2000 0 c0 -33 -2 -35 -35
-35 -33 0 -35 2 -35 35 0 33 2 35 35 35 33 0 35 -2 35 -35z m1000 0 c0 -33 -2
-35 -35 -35 -33 0 -35 2 -35 35 0 33 2 35 35 35 33 0 35 -2 35 -35z m-4000
-200 c0 -33 -2 -35 -35 -35 -33 0 -35 2 -35 35 0 33 2 35 35 35 33 0 35 -2 35
-35z m1000 0 c0 -33 -2 -35 -35 -35 -33 0 -35 2 -35 35 0 33 2 35 35 35 33 0
35 -2 35 -35z m2000 0 c0 -33 -2 -35 -35 -35 -33 0 -35 2 -35 35 0 33 2 35 35
35 33 0 35 -2 35 -35z m1000 0 c0 -33 -2 -35 -35 -35 -33 0 -35 2 -35 35 0 33
2 35 35 35 33 0 35 -2 35 -35z m785 -146 c73 -19 146 -63 191 -115 50 -58 59
-86 19 -60 -22 14 -25 15 -25 1 0 -19 -9 -19 -49 1 -17 9 -51 17 -75 19 -24 1
-50 6 -57 11 -11 6 -11 4 0 -9 13 -16 12 -17 -10 -9 -13 5 -30 7 -36 5 -7 -3
-16 2 -19 11 -3 9 -14 16 -24 16 -11 0 -22 5 -25 10 -3 6 -14 10 -23 10 -15 0
-15 -2 -2 -11 12 -9 12 -10 -3 -5 -10 3 -23 6 -29 6 -6 0 -8 7 -4 15 4 11 -2
15 -19 16 -44 2 -50 5 -48 17 3 14 -41 27 -64 18 -16 -6 -15 -5 1 12 9 11 31
23 49 28 18 4 43 11 57 15 39 11 151 10 195 -2z m-4785 -54 c0 -33 -2 -35 -35
-35 -33 0 -35 2 -35 35 0 33 2 35 35 35 33 0 35 -2 35 -35z m1000 0 c0 -33 -2
-35 -35 -35 -33 0 -35 2 -35 35 0 33 2 35 35 35 33 0 35 -2 35 -35z m2000 0
c0 -33 -2 -35 -35 -35 -33 0 -35 2 -35 35 0 33 2 35 35 35 33 0 35 -2 35 -35z
m1000 0 c0 -33 -2 -35 -35 -35 -33 0 -35 2 -35 35 0 33 2 35 35 35 33 0 35 -2
35 -35z m-4000 -200 c0 -33 -2 -35 -35 -35 -33 0 -35 2 -35 35 0 33 2 35 35
35 33 0 35 -2 35 -35z m1000 0 c0 -33 -2 -35 -35 -35 -33 0 -35 2 -35 35 0 33
2 35 35 35 33 0 35 -2 35 -35z m2000 0 c0 -33 -2 -35 -35 -35 -33 0 -35 2 -35
35 0 33 2 35 35 35 33 0 35 -2 35 -35z m1000 0 c0 -33 -2 -35 -35 -35 -33 0
-35 2 -35 35 0 33 2 35 35 35 33 0 35 -2 35 -35z m2319 -61 c-13 -16 -29 -18
-29 -4 0 6 7 10 16 10 9 0 12 5 8 12 -4 7 -3 8 5 4 9 -6 9 -11 0 -22z m-69
-104 c0 -5 -2 -10 -4 -10 -3 0 -8 5 -11 10 -3 6 -1 10 4 10 6 0 11 -4 11 -10z
m-6250 -35 c0 -33 -2 -35 -35 -35 -33 0 -35 2 -35 35 0 33 2 35 35 35 33 0 35
-2 35 -35z m1000 0 c0 -33 -2 -35 -35 -35 -33 0 -35 2 -35 35 0 33 2 35 35 35
33 0 35 -2 35 -35z m2000 0 c0 -33 -2 -35 -35 -35 -33 0 -35 2 -35 35 0 33 2
35 35 35 33 0 35 -2 35 -35z m1000 0 c0 -33 -2 -35 -35 -35 -33 0 -35 2 -35
35 0 33 2 35 35 35 33 0 35 -2 35 -35z m1010 -239 c0 -3 -4 -8 -10 -11 -5 -3
-10 -1 -10 4 0 6 5 11 10 11 6 0 10 -2 10 -4z m-36 -45 c3 -5 -1 -11 -9 -15
-15 -6 -29 7 -18 18 9 9 21 8 27 -3z m266 -290 c69 -10 150 -31 200 -52 36
-17 34 -30 -19 -108 -40 -60 -113 -120 -181 -150 -55 -24 -165 -35 -217 -22
-21 5 -55 14 -76 19 -50 13 -161 98 -186 143 -21 37 -28 79 -13 79 4 0 12 10
17 23 6 12 21 23 35 25 14 2 29 8 35 13 5 5 21 9 35 9 14 0 30 4 36 9 17 18
231 25 334 12z m-100 -502 c0 -12 -4 -18 -11 -13 -6 3 -15 0 -20 -7 -7 -11 -9
-10 -9 4 0 9 7 17 16 17 8 0 12 5 9 10 -3 6 -1 10 4 10 6 0 11 -9 11 -21z m26
-77 c8 -9 14 -12 14 -5 0 15 29 10 40 -7 10 -16 -5 -40 -26 -40 -8 0 -11 -6
-7 -17 4 -11 8 -13 11 -5 2 8 11 6 28 -7 14 -11 32 -17 40 -14 8 3 14 -1 14
-11 0 -10 9 -16 25 -16 18 0 25 -5 25 -20 0 -11 5 -20 11 -20 6 0 9 -6 6 -14
-6 -16 30 -30 39 -15 3 5 10 6 16 3 7 -5 9 0 6 14 -8 29 6 28 25 -2 14 -20 14
-27 1 -51 -16 -31 -19 -49 -3 -23 11 20 43 13 35 -8 -3 -7 3 -15 12 -17 9 -3
-1 -6 -23 -7 -22 -1 -34 -4 -27 -7 6 -2 10 -9 6 -14 -3 -5 0 -9 6 -9 6 0 10
-10 8 -22 -2 -18 2 -23 20 -24 12 -1 29 -2 37 -3 9 0 15 -11 15 -26 0 -14 5
-25 10 -25 6 0 9 3 9 8 -5 28 3 40 21 35 11 -3 20 -12 20 -19 0 -17 -17 -18
-23 -1 -6 17 -1 -41 8 -87 6 -28 4 -41 -6 -47 -12 -8 -11 -11 2 -19 12 -7 15
-19 11 -47 -8 -65 -7 -114 4 -121 6 -4 10 -51 10 -120 -1 -87 -4 -115 -16
-122 -8 -5 -18 -6 -22 -4 -13 8 3 -50 16 -58 6 -4 7 -10 3 -14 -3 -4 -14 -1
-22 6 -14 12 -15 10 -9 -16 4 -16 3 -26 -1 -22 -4 4 -13 0 -20 -8 -10 -14 -15
-14 -33 -3 -17 11 -24 11 -32 1 -6 -6 -7 -10 -3 -7 3 3 16 -1 27 -8 12 -7 35
-13 53 -12 24 0 29 -3 21 -13 -6 -7 -18 -10 -27 -7 -8 3 -12 3 -8 -1 8 -8 -45
-34 -68 -34 -8 0 -12 9 -9 23 2 12 2 16 -2 10 -3 -7 -12 -13 -20 -13 -20 0
-17 -17 4 -25 16 -6 16 -7 0 -16 -10 -5 -34 -8 -54 -7 -44 4 -59 -18 -17 -25
23 -3 22 -4 -9 -6 -31 -1 -37 2 -32 17 3 9 -3 3 -13 -13 -11 -20 -24 -30 -35
-27 -10 2 -18 7 -18 11 0 7 -19 8 -55 2 -5 -1 -1 -8 9 -16 23 -18 7 -27 -39
-21 -16 2 -38 4 -47 5 -11 1 -18 9 -18 21 0 11 -4 20 -10 20 -5 0 -10 -7 -10
-15 0 -8 -6 -15 -12 -16 -7 0 -4 -5 7 -10 14 -7 7 -8 -25 -4 -25 3 -55 13 -67
21 -12 7 -33 14 -45 14 -13 0 -29 8 -37 18 -9 13 -22 17 -42 14 -18 -3 -34 2
-45 12 -12 12 -25 15 -48 10 -26 -6 -29 -4 -18 8 6 8 9 17 6 21 -3 3 5 3 18 0
18 -4 20 -3 8 6 -8 6 -28 8 -45 5 -27 -6 -28 -5 -16 10 11 14 11 16 -3 16 -9
0 -16 7 -16 16 0 11 6 14 20 9 25 -8 27 12 3 32 -17 14 -17 14 0 9 15 -5 16
-3 7 14 -6 11 -8 25 -5 30 3 6 1 10 -5 10 -14 0 -10 70 5 71 5 0 -1 5 -14 10
-18 7 -21 12 -12 23 15 18 22 54 12 61 -11 6 -1 58 13 68 8 5 6 10 -4 17 -10
6 -11 10 -2 10 7 0 12 14 12 34 0 24 5 36 18 40 20 7 27 56 7 56 -22 0 -29 22
-12 35 18 13 24 30 7 20 -16 -10 -12 0 10 25 11 13 26 20 34 17 9 -4 18 -2 21
3 3 5 -5 10 -17 12 -21 3 -21 4 -4 21 12 12 14 17 4 17 -10 0 -9 3 2 10 10 6
11 10 3 10 -7 0 -13 5 -13 10 0 6 7 10 15 10 8 0 15 6 16 13 0 9 2 9 6 -1 4
-10 8 -10 19 -1 8 6 11 15 8 20 -3 5 1 9 8 10 7 0 0 7 -17 14 -16 8 -25 14
-19 15 7 0 15 11 18 25 4 14 13 25 21 25 8 0 15 5 15 11 0 5 4 8 8 5 5 -3 6 9
4 26 -4 27 -2 30 13 24 14 -5 16 -2 12 13 -3 11 2 26 10 32 10 9 13 23 8 45
-5 30 9 58 17 33 5 -15 59 7 56 23 -2 7 3 12 10 11 6 -2 12 3 12 11 0 16 27
29 41 20 11 -6 34 15 35 34 1 6 2 16 3 22 2 14 51 -7 67 -28z m351 -257 c0 -8
-4 -15 -8 -15 -11 0 -20 16 -12 24 11 11 20 7 20 -9z m-24 -59 c4 -10 1 -13
-9 -9 -7 3 -14 9 -14 14 0 14 17 10 23 -5z m-19 -24 c3 -5 -1 -9 -9 -9 -8 0
-12 4 -9 9 3 4 7 8 9 8 2 0 6 -4 9 -8z m111 -652 c3 -5 2 -10 -4 -10 -5 0 -13
5 -16 10 -3 6 -2 10 4 10 5 0 13 -4 16 -10z m-90 -190 c-3 -5 -10 -10 -16 -10
-5 0 -9 5 -9 10 0 6 7 10 16 10 8 0 12 -4 9 -10z"/>
<path d="M4770 6695 c0 -33 2 -35 35 -35 33 0 35 2 35 35 0 33 -2 35 -35 35
-33 0 -35 -2 -35 -35z"/>
<path d="M5170 6695 c0 -33 2 -35 35 -35 33 0 35 2 35 35 0 33 -2 35 -35 35
-33 0 -35 -2 -35 -35z"/>
<path d="M4770 6595 c0 -33 2 -35 35 -35 33 0 35 2 35 35 0 33 -2 35 -35 35
-33 0 -35 -2 -35 -35z"/>
<path d="M4870 6595 c0 -33 2 -35 35 -35 33 0 35 2 35 35 0 33 -2 35 -35 35
-33 0 -35 -2 -35 -35z"/>
<path d="M5170 6595 c0 -33 2 -35 35 -35 33 0 35 2 35 35 0 33 -2 35 -35 35
-33 0 -35 -2 -35 -35z"/>
<path d="M4770 6495 c0 -33 2 -35 35 -35 33 0 35 2 35 35 0 33 -2 35 -35 35
-33 0 -35 -2 -35 -35z"/>
<path d="M4970 6495 c0 -33 2 -35 35 -35 33 0 35 2 35 35 0 33 -2 35 -35 35
-33 0 -35 -2 -35 -35z"/>
<path d="M5170 6495 c0 -33 2 -35 35 -35 33 0 35 2 35 35 0 33 -2 35 -35 35
-33 0 -35 -2 -35 -35z"/>
<path d="M4770 6395 c0 -33 2 -35 35 -35 33 0 35 2 35 35 0 33 -2 35 -35 35
-33 0 -35 -2 -35 -35z"/>
<path d="M5070 6395 c0 -33 2 -35 35 -35 33 0 35 2 35 35 0 33 -2 35 -35 35
-33 0 -35 -2 -35 -35z"/>
<path d="M5170 6395 c0 -33 2 -35 35 -35 33 0 35 2 35 35 0 33 -2 35 -35 35
-33 0 -35 -2 -35 -35z"/>
<path d="M4770 6295 c0 -33 2 -35 35 -35 33 0 35 2 35 35 0 33 -2 35 -35 35
-33 0 -35 -2 -35 -35z"/>
<path d="M5170 6295 c0 -33 2 -35 35 -35 33 0 35 2 35 35 0 33 -2 35 -35 35
-33 0 -35 -2 -35 -35z"/>
<path d="M4770 6095 c0 -33 2 -35 35 -35 33 0 35 2 35 35 0 33 -2 35 -35 35
-33 0 -35 -2 -35 -35z"/>
<path d="M4870 6095 c0 -33 2 -35 35 -35 33 0 35 2 35 35 0 33 -2 35 -35 35
-33 0 -35 -2 -35 -35z"/>
<path d="M4970 6095 c0 -33 2 -35 35 -35 33 0 35 2 35 35 0 33 -2 35 -35 35
-33 0 -35 -2 -35 -35z"/>
<path d="M5070 6095 c0 -33 2 -35 35 -35 33 0 35 2 35 35 0 33 -2 35 -35 35
-33 0 -35 -2 -35 -35z"/>
<path d="M5170 6095 c0 -33 2 -35 35 -35 33 0 35 2 35 35 0 33 -2 35 -35 35
-33 0 -35 -2 -35 -35z"/>
<path d="M4770 5995 c0 -33 2 -35 35 -35 33 0 35 2 35 35 0 33 -2 35 -35 35
-33 0 -35 -2 -35 -35z"/>
<path d="M5170 5995 c0 -33 2 -35 35 -35 33 0 35 2 35 35 0 33 -2 35 -35 35
-33 0 -35 -2 -35 -35z"/>
<path d="M4770 5895 c0 -33 2 -35 35 -35 33 0 35 2 35 35 0 33 -2 35 -35 35
-33 0 -35 -2 -35 -35z"/>
<path d="M5170 5895 c0 -33 2 -35 35 -35 33 0 35 2 35 35 0 33 -2 35 -35 35
-33 0 -35 -2 -35 -35z"/>
<path d="M4770 5795 c0 -33 2 -35 35 -35 33 0 35 2 35 35 0 33 -2 35 -35 35
-33 0 -35 -2 -35 -35z"/>
<path d="M5170 5795 c0 -33 2 -35 35 -35 33 0 35 2 35 35 0 33 -2 35 -35 35
-33 0 -35 -2 -35 -35z"/>
<path d="M4770 5695 c0 -33 2 -35 35 -35 33 0 35 2 35 35 0 33 -2 35 -35 35
-33 0 -35 -2 -35 -35z"/>
<path d="M4870 5695 c0 -33 2 -35 35 -35 33 0 35 2 35 35 0 33 -2 35 -35 35
-33 0 -35 -2 -35 -35z"/>
<path d="M4970 5695 c0 -33 2 -35 35 -35 33 0 35 2 35 35 0 33 -2 35 -35 35
-33 0 -35 -2 -35 -35z"/>
<path d="M5070 5695 c0 -33 2 -35 35 -35 33 0 35 2 35 35 0 33 -2 35 -35 35
-33 0 -35 -2 -35 -35z"/>
<path d="M5170 5695 c0 -33 2 -35 35 -35 33 0 35 2 35 35 0 33 -2 35 -35 35
-33 0 -35 -2 -35 -35z"/>
<path d="M4770 5495 c0 -33 2 -35 35 -35 33 0 35 2 35 35 0 33 -2 35 -35 35
-33 0 -35 -2 -35 -35z"/>
<path d="M4870 5495 c0 -33 2 -35 35 -35 33 0 35 2 35 35 0 33 -2 35 -35 35
-33 0 -35 -2 -35 -35z"/>
<path d="M4970 5495 c0 -33 2 -35 35 -35 33 0 35 2 35 35 0 33 -2 35 -35 35
-33 0 -35 -2 -35 -35z"/>
<path d="M5070 5495 c0 -33 2 -35 35 -35 33 0 35 2 35 35 0 33 -2 35 -35 35
-33 0 -35 -2 -35 -35z"/>
<path d="M5170 5495 c0 -33 2 -35 35 -35 33 0 35 2 35 35 0 33 -2 35 -35 35
-33 0 -35 -2 -35 -35z"/>
<path d="M4970 5395 c0 -33 2 -35 35 -35 33 0 35 2 35 35 0 33 -2 35 -35 35
-33 0 -35 -2 -35 -35z"/>
<path d="M4970 5295 c0 -33 2 -35 35 -35 33 0 35 2 35 35 0 33 -2 35 -35 35
-33 0 -35 -2 -35 -35z"/>
<path d="M4970 5195 c0 -33 2 -35 35 -35 33 0 35 2 35 35 0 33 -2 35 -35 35
-33 0 -35 -2 -35 -35z"/>
<path d="M4970 5095 c0 -33 2 -35 35 -35 33 0 35 2 35 35 0 33 -2 35 -35 35
-33 0 -35 -2 -35 -35z"/>
<path d="M4770 4895 c0 -33 2 -35 35 -35 33 0 35 2 35 35 0 33 -2 35 -35 35
-33 0 -35 -2 -35 -35z"/>
<path d="M5170 4895 c0 -33 2 -35 35 -35 33 0 35 2 35 35 0 33 -2 35 -35 35
-33 0 -35 -2 -35 -35z"/>
<path d="M4770 4795 c0 -33 2 -35 35 -35 33 0 35 2 35 35 0 33 -2 35 -35 35
-33 0 -35 -2 -35 -35z"/>
<path d="M5170 4795 c0 -33 2 -35 35 -35 33 0 35 2 35 35 0 33 -2 35 -35 35
-33 0 -35 -2 -35 -35z"/>
<path d="M4770 4695 c0 -33 2 -35 35 -35 33 0 35 2 35 35 0 33 -2 35 -35 35
-33 0 -35 -2 -35 -35z"/>
<path d="M4870 4695 c0 -33 2 -35 35 -35 33 0 35 2 35 35 0 33 -2 35 -35 35
-33 0 -35 -2 -35 -35z"/>
<path d="M4970 4695 c0 -33 2 -35 35 -35 33 0 35 2 35 35 0 33 -2 35 -35 35
-33 0 -35 -2 -35 -35z"/>
<path d="M5070 4695 c0 -33 2 -35 35 -35 33 0 35 2 35 35 0 33 -2 35 -35 35
-33 0 -35 -2 -35 -35z"/>
<path d="M5170 4695 c0 -33 2 -35 35 -35 33 0 35 2 35 35 0 33 -2 35 -35 35
-33 0 -35 -2 -35 -35z"/>
<path d="M4770 4595 c0 -33 2 -35 35 -35 33 0 35 2 35 35 0 33 -2 35 -35 35
-33 0 -35 -2 -35 -35z"/>
<path d="M5170 4595 c0 -33 2 -35 35 -35 33 0 35 2 35 35 0 33 -2 35 -35 35
-33 0 -35 -2 -35 -35z"/>
<path d="M4770 4495 c0 -33 2 -35 35 -35 33 0 35 2 35 35 0 33 -2 35 -35 35
-33 0 -35 -2 -35 -35z"/>
<path d="M5170 4495 c0 -33 2 -35 35 -35 33 0 35 2 35 35 0 33 -2 35 -35 35
-33 0 -35 -2 -35 -35z"/>
<path d="M4770 4295 c0 -33 2 -35 35 -35 33 0 35 2 35 35 0 33 -2 35 -35 35
-33 0 -35 -2 -35 -35z"/>
<path d="M4870 4295 c0 -33 2 -35 35 -35 33 0 35 2 35 35 0 33 -2 35 -35 35
-33 0 -35 -2 -35 -35z"/>
<path d="M4970 4295 c0 -33 2 -35 35 -35 33 0 35 2 35 35 0 33 -2 35 -35 35
-33 0 -35 -2 -35 -35z"/>
<path d="M5070 4295 c0 -33 2 -35 35 -35 33 0 35 2 35 35 0 33 -2 35 -35 35
-33 0 -35 -2 -35 -35z"/>
<path d="M5170 4295 c0 -33 2 -35 35 -35 33 0 35 2 35 35 0 33 -2 35 -35 35
-33 0 -35 -2 -35 -35z"/>
<path d="M4770 4195 c0 -33 2 -35 35 -35 33 0 35 2 35 35 0 33 -2 35 -35 35
-33 0 -35 -2 -35 -35z"/>
<path d="M4770 4095 c0 -33 2 -35 35 -35 33 0 35 2 35 35 0 33 -2 35 -35 35
-33 0 -35 -2 -35 -35z"/>
<path d="M4870 4095 c0 -33 2 -35 35 -35 33 0 35 2 35 35 0 33 -2 35 -35 35
-33 0 -35 -2 -35 -35z"/>
<path d="M4970 4095 c0 -33 2 -35 35 -35 33 0 35 2 35 35 0 33 -2 35 -35 35
-33 0 -35 -2 -35 -35z"/>
<path d="M5070 4095 c0 -33 2 -35 35 -35 33 0 35 2 35 35 0 33 -2 35 -35 35
-33 0 -35 -2 -35 -35z"/>
<path d="M4770 3995 c0 -33 2 -35 35 -35 33 0 35 2 35 35 0 33 -2 35 -35 35
-33 0 -35 -2 -35 -35z"/>
<path d="M4770 3895 c0 -33 2 -35 35 -35 33 0 35 2 35 35 0 33 -2 35 -35 35
-33 0 -35 -2 -35 -35z"/>
<path d="M4870 3895 c0 -33 2 -35 35 -35 33 0 35 2 35 35 0 33 -2 35 -35 35
-33 0 -35 -2 -35 -35z"/>
<path d="M4970 3895 c0 -33 2 -35 35 -35 33 0 35 2 35 35 0 33 -2 35 -35 35
-33 0 -35 -2 -35 -35z"/>
<path d="M5070 3895 c0 -33 2 -35 35 -35 33 0 35 2 35 35 0 33 -2 35 -35 35
-33 0 -35 -2 -35 -35z"/>
<path d="M5170 3895 c0 -33 2 -35 35 -35 33 0 35 2 35 35 0 33 -2 35 -35 35
-33 0 -35 -2 -35 -35z"/>
<path d="M4770 3695 c0 -33 2 -35 35 -35 33 0 35 2 35 35 0 33 -2 35 -35 35
-33 0 -35 -2 -35 -35z"/>
<path d="M4870 3695 c0 -33 2 -35 35 -35 33 0 35 2 35 35 0 33 -2 35 -35 35
-33 0 -35 -2 -35 -35z"/>
<path d="M4970 3695 c0 -33 2 -35 35 -35 33 0 35 2 35 35 0 33 -2 35 -35 35
-33 0 -35 -2 -35 -35z"/>
<path d="M5070 3695 c0 -33 2 -35 35 -35 33 0 35 2 35 35 0 33 -2 35 -35 35
-33 0 -35 -2 -35 -35z"/>
<path d="M4770 3595 c0 -33 2 -35 35 -35 33 0 35 2 35 35 0 33 -2 35 -35 35
-33 0 -35 -2 -35 -35z"/>
<path d="M5170 3595 c0 -33 2 -35 35 -35 33 0 35 2 35 35 0 33 -2 35 -35 35
-33 0 -35 -2 -35 -35z"/>
<path d="M4770 3495 c0 -33 2 -35 35 -35 33 0 35 2 35 35 0 33 -2 35 -35 35
-33 0 -35 -2 -35 -35z"/>
<path d="M4870 3495 c0 -33 2 -35 35 -35 33 0 35 2 35 35 0 33 -2 35 -35 35
-33 0 -35 -2 -35 -35z"/>
<path d="M4970 3495 c0 -33 2 -35 35 -35 33 0 35 2 35 35 0 33 -2 35 -35 35
-33 0 -35 -2 -35 -35z"/>
<path d="M5070 3495 c0 -33 2 -35 35 -35 33 0 35 2 35 35 0 33 -2 35 -35 35
-33 0 -35 -2 -35 -35z"/>
<path d="M4770 3395 c0 -33 2 -35 35 -35 33 0 35 2 35 35 0 33 -2 35 -35 35
-33 0 -35 -2 -35 -35z"/>
<path d="M5070 3395 c0 -33 2 -35 35 -35 33 0 35 2 35 35 0 33 -2 35 -35 35
-33 0 -35 -2 -35 -35z"/>
<path d="M4770 3295 c0 -33 2 -35 35 -35 33 0 35 2 35 35 0 33 -2 35 -35 35
-33 0 -35 -2 -35 -35z"/>
<path d="M5170 3295 c0 -33 2 -35 35 -35 33 0 35 2 35 35 0 33 -2 35 -35 35
-33 0 -35 -2 -35 -35z"/>
<path d="M8158 1853 c7 -3 16 -2 19 1 4 3 -2 6 -13 5 -11 0 -14 -3 -6 -6z"/>
<path d="M8000 1710 c0 -5 5 -10 11 -10 5 0 7 5 4 10 -3 6 -8 10 -11 10 -2 0
-4 -4 -4 -10z"/>
<path d="M7810 765 c7 -8 20 -15 28 -15 13 0 12 3 -4 15 -25 19 -40 19 -24 0z"/>
<path d="M7815 730 c-3 -5 -1 -10 4 -10 6 0 11 5 11 10 0 6 -2 10 -4 10 -3 0
-8 -4 -11 -10z"/>
<path d="M8490 729 c0 -5 5 -7 10 -4 6 3 10 8 10 11 0 2 -4 4 -10 4 -5 0 -10
-5 -10 -11z"/>
<path d="M8077 623 c3 -8 -2 -13 -13 -13 -15 0 -16 -2 -5 -9 9 -6 19 -5 26 2
15 15 15 34 -1 34 -7 0 -10 -6 -7 -14z"/>
<path d="M9531 3108 c-11 -18 -10 -18 11 -7 31 16 31 16 15 22 -7 3 -19 -4
-26 -15z"/>
<path d="M9660 3110 c-9 -6 -10 -10 -3 -10 6 0 15 5 18 10 8 12 4 12 -15 0z"/>
<path d="M9978 2923 c7 -3 16 -2 19 1 4 3 -2 6 -13 5 -11 0 -14 -3 -6 -6z"/>
<path d="M9392 2871 c4 -13 18 -16 19 -4 0 4 -5 9 -11 12 -7 2 -11 -2 -8 -8z"/>
</g>
</svg>
