<?xml version="1.0" standalone="no"?>
<!DOCTYPE svg PUBLIC "-//W3C//DTD SVG 20010904//EN"
 "http://www.w3.org/TR/2001/REC-SVG-20010904/DTD/svg10.dtd">
<svg version="1.0" xmlns="http://www.w3.org/2000/svg"
 width="960.000000pt" height="960.000000pt" viewBox="0 0 960.000000 960.000000"
 preserveAspectRatio="xMidYMid meet">
<metadata>
Created by potrace 1.11, written by Peter Selinger 2001-2013
</metadata>
<g transform="translate(0.000000,960.000000) scale(0.100000,-0.100000)"
fill="#000000" stroke="none">
<path d="M3125 8450 c-18 -7 -105 -162 -105 -188 0 -6 -3 -12 -7 -14 -5 -1
-18 -23 -29 -48 -45 -92 -154 -331 -154 -335 0 -6 -70 -158 -90 -196 -11 -20
-20 -41 -20 -47 0 -6 -19 -50 -41 -99 -23 -48 -49 -110 -59 -138 -10 -27 -30
-77 -45 -110 -15 -33 -31 -71 -36 -85 -15 -48 -38 -105 -60 -155 -13 -27 -24
-54 -24 -60 -1 -5 -7 -21 -12 -35 -6 -14 -21 -50 -32 -80 -12 -30 -28 -69 -36
-87 -8 -17 -15 -35 -15 -40 0 -4 -14 -44 -31 -88 -64 -164 -139 -387 -132
-398 3 -5 2 -7 -4 -4 -6 4 -20 -25 -33 -66 -12 -40 -30 -88 -39 -107 l-17 -35
-80 1 c-43 0 -135 4 -204 8 -168 9 -416 10 -467 1 -50 -8 -93 -45 -93 -78 0
-16 13 -36 34 -55 45 -39 88 -44 551 -58 104 -3 191 -7 193 -8 1 -2 -2 -16 -9
-32 -6 -16 -15 -38 -20 -49 -4 -11 -11 -31 -14 -45 -4 -14 -13 -39 -21 -56 -7
-17 -15 -40 -17 -50 -2 -11 -9 -30 -14 -44 -6 -14 -8 -31 -5 -39 3 -9 1 -12
-6 -7 -8 5 -12 0 -12 -14 0 -11 -4 -28 -10 -38 -17 -30 -267 -796 -303 -927
-7 -27 -13 -59 -13 -70 1 -11 -4 -25 -10 -32 -16 -17 -56 -152 -50 -168 3 -8
-4 -32 -15 -54 -10 -22 -19 -48 -19 -59 0 -10 -5 -23 -12 -30 -7 -7 -8 -12 -3
-12 4 0 1 -8 -7 -17 -21 -25 -29 -51 -16 -55 6 -2 2 -22 -11 -52 -13 -26 -23
-61 -23 -77 -1 -16 -5 -32 -9 -35 -5 -2 -6 -11 -2 -19 3 -8 0 -15 -5 -15 -6 0
-9 -15 -7 -35 2 -20 -1 -33 -7 -32 -6 1 -13 -4 -16 -12 -3 -8 0 -11 7 -7 6 4
5 -4 -3 -21 -8 -15 -18 -39 -24 -53 -5 -14 -15 -38 -23 -53 -7 -15 -13 -44
-14 -65 0 -20 -6 -47 -13 -59 -6 -12 -12 -31 -12 -42 0 -12 -4 -21 -9 -21 -5
0 -8 -13 -6 -30 2 -16 0 -30 -5 -30 -5 0 -8 -14 -8 -32 1 -18 -4 -34 -10 -36
-7 -2 -10 -8 -7 -13 3 -4 -1 -19 -10 -32 -8 -14 -15 -37 -13 -53 1 -16 -2 -35
-6 -42 -4 -7 -10 -28 -13 -45 -3 -17 -11 -43 -18 -57 -7 -14 -16 -45 -20 -70
-4 -24 -14 -55 -22 -67 -8 -12 -13 -28 -11 -35 2 -6 -4 -20 -14 -30 -13 -13
-16 -27 -12 -50 4 -25 3 -29 -5 -18 -7 9 -11 10 -11 3 0 -6 5 -15 10 -18 6 -3
10 -11 10 -16 0 -6 -4 -8 -9 -4 -5 3 -9 -8 -9 -24 1 -18 5 -28 11 -24 6 4 7 1
3 -6 -5 -7 -15 -10 -25 -6 -13 5 -13 4 -4 -6 10 -10 10 -16 -2 -29 -9 -10 -17
-39 -19 -66 -2 -26 -9 -50 -15 -52 -6 -2 -11 -18 -11 -35 0 -25 -3 -29 -10
-17 -8 12 -10 10 -7 -10 1 -14 6 -31 11 -39 6 -9 5 -12 -2 -7 -7 4 -13 -7 -17
-31 -4 -21 -13 -54 -20 -73 -26 -66 -27 -95 -6 -114 11 -10 25 -15 32 -10 9 5
10 2 6 -9 -3 -10 -2 -17 3 -17 6 0 10 8 11 18 0 14 2 13 9 -4 9 -22 34 -37 44
-26 4 3 14 7 22 8 29 4 45 14 40 23 -4 5 -1 11 5 13 6 2 13 27 15 55 4 72 23
140 35 122 12 -19 11 -2 -1 21 -8 15 -7 18 3 14 8 -3 14 1 15 8 0 7 3 24 7 38
5 22 4 21 -10 -5 -8 -16 -13 -22 -11 -13 3 10 0 20 -6 24 -7 4 -7 9 1 14 7 4
13 18 15 31 1 13 7 33 13 43 6 10 8 27 6 37 -3 11 0 19 6 19 6 0 11 13 11 28
0 15 5 33 12 40 9 9 9 12 -3 12 -10 1 -8 5 6 16 14 10 20 26 20 54 0 31 3 39
14 35 11 -4 11 -3 2 9 -8 10 -9 16 -1 21 5 3 10 12 10 18 0 7 -4 6 -10 -3 -6
-9 -10 -10 -10 -3 0 7 9 17 20 23 12 6 20 21 20 35 0 14 6 25 13 25 7 0 8 3 2
8 -13 9 -11 78 2 75 6 -1 9 7 6 17 -3 11 0 20 6 20 6 0 11 7 11 15 0 8 6 15
13 15 9 0 8 3 -2 9 -11 7 -11 9 0 14 10 4 10 6 2 6 -7 1 -13 5 -13 10 0 6 9 8
20 6 18 -3 23 4 19 31 0 4 4 10 9 13 6 3 13 30 16 59 3 28 13 68 21 88 8 20
12 47 9 60 -6 25 10 34 20 12 3 -7 3 -2 0 11 -5 17 -3 21 6 16 9 -6 11 -4 5 5
-4 7 -3 15 4 19 6 4 12 26 13 49 1 23 5 42 10 42 4 0 8 9 8 20 0 11 3 20 8 20
6 0 26 50 37 93 2 10 0 29 -5 43 -7 18 -6 24 4 24 7 0 18 12 24 26 10 20 10
24 0 18 -8 -5 -8 -2 1 10 8 9 15 30 16 44 1 15 5 33 9 40 4 7 4 12 -1 12 -4 0
-3 4 3 8 13 9 46 74 33 67 -13 -9 -10 7 6 28 7 11 11 25 8 33 -3 8 0 14 6 14
6 0 11 16 11 35 0 19 4 35 9 35 4 0 6 11 3 25 -3 16 0 25 8 25 7 0 10 7 6 16
-3 8 -2 13 3 10 5 -3 12 11 16 31 6 32 14 61 40 141 3 7 4 14 5 17 0 3 7 19
15 35 9 17 15 36 14 43 -1 6 2 23 8 37 6 14 20 59 33 100 12 41 35 113 50 160
16 47 43 132 60 190 18 58 38 122 46 143 8 20 12 37 9 37 -3 0 1 16 9 35 9 20
15 37 16 40 1 7 9 32 17 53 9 24 9 23 17 57 4 17 20 64 36 105 38 104 72 231
66 247 -3 8 -1 11 4 8 5 -3 12 7 15 22 4 15 10 37 15 48 5 11 14 37 20 57 6
20 19 39 28 42 21 6 784 -1 832 -7 52 -8 175 -17 255 -19 38 -1 75 -6 80 -12
14 -14 38 -73 41 -100 1 -12 14 -55 29 -96 15 -41 29 -84 31 -94 2 -11 9 -23
15 -27 6 -4 8 -12 5 -18 -4 -6 -3 -11 2 -11 5 0 12 -18 16 -40 4 -27 10 -39
18 -34 7 5 9 2 5 -8 -3 -9 2 -26 11 -39 9 -13 16 -25 14 -26 -7 -8 0 -43 11
-55 6 -7 20 -36 29 -64 10 -28 25 -68 35 -90 9 -21 17 -43 17 -49 1 -5 9 -25
19 -42 10 -18 15 -33 12 -33 -3 0 2 -15 12 -32 9 -18 18 -40 19 -48 2 -8 11
-20 20 -27 10 -7 18 -21 19 -31 1 -23 46 -135 57 -143 4 -3 9 -17 10 -32 1
-15 7 -27 12 -27 5 0 7 -3 3 -6 -3 -4 1 -13 9 -21 8 -9 13 -22 10 -29 -3 -8
-1 -14 5 -14 6 0 8 -7 5 -16 -3 -8 -2 -13 3 -10 8 6 24 -17 26 -39 3 -24 29
-84 36 -80 4 3 7 -1 6 -8 -1 -32 4 -48 13 -42 6 4 7 -1 3 -11 -4 -12 -3 -15 5
-10 8 4 10 2 6 -7 -3 -8 9 -38 25 -66 17 -29 31 -56 31 -61 0 -6 4 -10 8 -10
4 0 14 -21 21 -47 8 -27 21 -56 29 -65 8 -10 12 -18 8 -18 -4 0 5 -20 19 -45
14 -25 25 -53 25 -61 0 -9 5 -12 12 -8 7 5 9 2 5 -9 -3 -8 0 -21 8 -27 14 -11
41 -78 37 -92 -1 -3 5 -12 13 -18 8 -7 15 -16 15 -20 0 -5 16 -36 34 -69 19
-34 33 -61 30 -61 -3 0 4 -12 15 -26 12 -15 21 -31 21 -37 0 -6 10 -21 22 -34
12 -13 16 -23 9 -23 -7 0 -9 -5 -6 -10 4 -6 10 -8 15 -5 4 3 16 -15 25 -40 10
-25 31 -58 47 -75 16 -17 26 -36 22 -42 -4 -6 -3 -9 2 -6 9 6 36 -17 29 -24
-2 -2 5 -5 17 -5 12 -1 25 -8 30 -15 8 -10 11 -10 15 0 10 25 36 43 55 39 10
-3 15 -1 12 4 -3 5 1 12 9 15 10 3 15 18 14 41 -1 23 5 38 16 44 9 6 17 16 17
24 0 11 54 40 71 37 3 -1 5 14 4 32 -1 28 2 33 19 29 12 -2 16 -1 10 2 -16 8
-5 47 11 41 8 -3 11 2 8 13 -3 11 2 21 12 24 13 5 14 11 5 27 -8 16 -8 20 4
20 12 0 46 56 46 77 0 15 25 63 33 63 4 0 7 12 7 27 0 14 3 23 6 20 8 -8 44
55 37 66 -2 4 1 7 6 7 6 0 10 3 9 8 -3 12 25 92 32 92 13 0 33 59 26 75 -3 9
-2 14 3 11 8 -6 41 52 45 79 1 7 8 20 15 29 7 9 10 16 6 16 -4 0 -2 6 4 13 6
8 8 17 4 20 -3 4 -1 7 5 7 7 0 12 8 12 18 0 11 9 29 20 42 11 13 20 36 20 52
0 16 4 27 9 24 8 -5 22 22 36 72 3 12 11 22 16 22 5 0 9 9 9 19 0 11 5 23 10
26 6 4 8 15 5 26 -4 11 -2 19 5 19 6 0 10 6 8 13 -2 6 1 12 5 12 12 0 38 65
31 76 -3 5 0 9 6 9 7 0 10 6 7 14 -3 8 3 22 13 31 10 9 16 23 13 31 -3 8 0 14
7 14 7 0 9 8 5 23 -4 13 -3 17 2 10 6 -9 12 -7 21 7 8 13 9 20 1 20 -6 0 0 15
13 33 13 17 22 33 20 35 -7 7 -1 42 7 38 11 -7 19 12 16 41 -1 14 3 19 12 16
7 -3 14 -1 14 3 1 5 3 18 4 29 1 11 10 36 21 55 10 19 19 37 19 40 5 17 20 52
43 100 14 30 26 57 27 60 1 3 9 22 18 44 9 21 17 46 17 55 0 9 11 33 24 52 14
20 28 48 32 63 3 14 10 29 15 32 5 3 7 10 3 15 -3 5 -2 15 3 22 5 7 22 44 37
82 35 86 73 180 92 222 8 17 14 37 14 45 0 7 7 23 15 35 17 24 45 96 50 128 4
29 16 55 25 55 4 0 11 7 14 16 4 10 2 13 -7 8 -6 -4 -3 2 7 14 11 12 16 25 13
29 -4 3 0 14 8 24 9 9 17 27 18 40 2 13 12 42 23 64 23 44 59 146 56 158 -1 4
3 7 8 7 6 0 10 7 10 15 0 9 7 30 16 48 10 17 18 39 19 47 0 8 6 26 12 40 10
23 46 119 49 130 0 3 6 19 13 35 7 17 24 64 38 105 13 41 30 88 38 105 18 41
28 67 31 85 2 8 9 30 18 50 38 93 66 169 77 210 7 25 19 53 27 63 9 9 15 31
15 47 0 16 3 27 7 25 3 -2 19 35 35 82 28 84 28 85 10 119 -18 33 -19 34 -43
18 -17 -11 -22 -12 -17 -3 4 8 -1 5 -12 -6 -17 -17 -82 -152 -87 -180 -1 -5
-14 -36 -29 -67 -15 -31 -27 -63 -27 -70 0 -8 -4 -18 -9 -23 -5 -6 -23 -46
-41 -90 -17 -44 -35 -89 -40 -100 -49 -108 -75 -181 -70 -194 1 -2 -5 -8 -14
-13 -8 -5 -13 -15 -10 -23 4 -8 1 -15 -5 -15 -6 0 -10 -3 -9 -7 1 -5 -5 -21
-12 -38 -7 -16 -14 -32 -15 -35 -5 -14 -27 -65 -47 -108 -20 -44 -24 -55 -32
-91 -1 -8 -8 -17 -14 -19 -7 -2 -12 -8 -12 -13 0 -6 6 -7 13 -4 6 4 5 0 -4 -7
-9 -7 -24 -35 -33 -61 -9 -27 -25 -66 -36 -88 -12 -22 -18 -45 -14 -52 4 -7 3
-9 -1 -4 -5 4 -21 -27 -37 -70 -15 -42 -33 -82 -38 -87 -6 -6 -10 -21 -10 -35
0 -13 -3 -21 -7 -18 -9 9 -35 -52 -27 -64 3 -5 0 -9 -6 -9 -7 0 -10 -7 -7 -15
4 -8 2 -17 -3 -20 -4 -3 -16 -27 -26 -53 -10 -26 -24 -55 -32 -65 -9 -9 -12
-20 -9 -23 3 -4 -1 -13 -9 -21 -8 -9 -13 -22 -10 -29 3 -8 2 -14 -3 -14 -4 0
-13 -19 -20 -42 -7 -24 -24 -63 -37 -87 -13 -24 -21 -47 -18 -52 3 -5 0 -9 -5
-9 -6 0 -11 -5 -11 -11 0 -7 -20 -56 -45 -111 -25 -55 -45 -105 -45 -112 0 -7
-5 -17 -12 -24 -12 -12 -49 -103 -69 -169 -5 -18 -14 -33 -20 -33 -6 0 -7 -4
-4 -10 3 -5 2 -10 -2 -10 -5 0 -10 -10 -10 -22 -1 -13 -7 -24 -13 -26 -5 -2
-8 -8 -4 -13 3 -5 0 -9 -6 -9 -6 0 -9 -4 -6 -9 3 -5 -1 -14 -10 -21 -8 -7 -13
-19 -10 -27 3 -7 1 -13 -4 -13 -6 0 -10 -11 -10 -25 0 -14 -10 -39 -21 -54
-12 -16 -18 -34 -14 -40 4 -7 1 -10 -7 -9 -7 2 -12 -3 -11 -9 2 -7 -1 -13 -6
-13 -5 0 -8 -11 -7 -25 2 -13 -7 -40 -20 -59 -13 -19 -25 -40 -26 -47 -2 -7
-9 -20 -16 -28 -7 -9 -13 -20 -13 -26 -1 -5 -10 -20 -20 -33 -10 -13 -15 -30
-12 -38 3 -7 -2 -17 -11 -20 -9 -3 -16 -10 -16 -16 0 -5 -13 -36 -30 -70 -16
-33 -27 -65 -23 -71 3 -6 1 -7 -5 -3 -7 4 -12 1 -12 -6 0 -7 -7 -26 -15 -42
-9 -16 -13 -31 -11 -34 3 -2 -4 -14 -15 -25 -11 -12 -27 -46 -36 -77 -15 -54
-40 -110 -52 -120 -12 -10 -61 -127 -61 -146 0 -9 -5 -12 -12 -8 -8 5 -9 2 -5
-9 3 -10 2 -17 -3 -17 -5 0 -6 -7 -3 -17 5 -12 3 -14 -7 -8 -8 5 -11 3 -8 -6
3 -8 -3 -25 -12 -39 -10 -14 -20 -34 -22 -44 -1 -11 -13 -31 -26 -44 -12 -14
-20 -27 -17 -30 3 -3 12 3 21 14 20 24 7 -2 -20 -40 -11 -16 -15 -26 -8 -22 6
4 4 -8 -6 -26 -9 -18 -20 -34 -23 -36 -4 -2 -5 -13 -2 -25 4 -16 2 -18 -5 -8
-8 10 -11 6 -17 -18 -3 -17 -11 -31 -16 -31 -6 0 -7 -5 -3 -11 3 -6 2 -14 -3
-18 -6 -3 -13 -17 -17 -31 -6 -19 -5 -21 3 -10 9 13 11 13 11 -1 0 -23 -29
-32 -48 -17 -13 11 -15 11 -8 -2 4 -8 1 -7 -8 3 -8 11 -13 24 -10 31 3 7 -4
20 -15 30 -11 10 -18 23 -15 30 3 7 -4 21 -16 31 -11 10 -20 26 -20 36 0 10
-6 24 -14 31 -7 8 -17 28 -20 45 -4 17 -14 34 -23 37 -9 4 -13 9 -10 13 7 7
-42 104 -58 115 -5 4 -6 10 -3 14 4 3 -10 41 -31 83 -21 42 -44 87 -50 101 -6
14 -20 39 -30 55 -11 17 -20 37 -20 46 -1 9 -10 28 -22 42 -11 15 -22 34 -24
44 -8 36 -36 105 -51 128 -9 13 -13 29 -9 35 3 5 -1 13 -9 16 -9 3 -16 12 -16
19 0 7 -7 26 -15 42 -8 15 -22 46 -31 68 -9 22 -24 58 -35 81 -10 23 -19 46
-19 51 0 6 -9 22 -20 36 -11 14 -23 40 -27 59 -3 18 -16 51 -28 73 -23 41 -25
48 -25 66 0 5 -3 8 -7 6 -5 -3 -9 6 -10 20 0 14 -5 28 -10 32 -10 8 -30 48
-39 81 -3 14 -14 43 -24 65 -10 22 -45 117 -79 210 -35 94 -67 181 -73 195 -6
14 -11 30 -10 36 1 6 -5 24 -13 40 -9 17 -11 30 -5 32 6 2 8 8 5 12 -3 5 0 12
6 16 7 4 9 3 6 -3 -5 -7 12 -12 46 -15 98 -7 402 -3 427 6 14 5 49 11 78 13
28 3 52 10 52 16 0 5 3 8 6 4 13 -13 32 18 23 39 -4 12 -5 25 -2 28 4 3 1 6
-5 6 -7 0 -12 -4 -12 -10 0 -5 -7 -7 -15 -4 -8 4 -12 10 -9 15 5 8 -9 13 -28
10 -5 0 -8 4 -8 9 0 7 -6 7 -20 0 -14 -7 -20 -7 -20 0 0 5 -3 9 -7 8 -5 -1
-27 4 -51 11 -66 19 -72 19 -456 36 -50 2 -63 7 -82 28 -20 24 -44 102 -44
147 0 10 -5 22 -11 25 -6 4 -8 13 -5 20 3 8 1 28 -4 47 -5 18 -12 50 -14 71
-3 21 -12 63 -20 95 -47 181 -113 725 -132 1081 -6 128 -20 184 -47 189 -47 9
-62 -117 -62 -538 0 -292 12 -478 41 -650 8 -47 17 -103 20 -125 6 -53 19
-117 48 -248 21 -93 22 -109 9 -114 -8 -3 -62 -3 -121 1 -59 4 -287 9 -507 12
-220 3 -404 9 -408 13 -5 5 12 64 36 132 47 129 79 232 82 261 0 9 6 22 12 30
5 7 24 54 41 103 16 50 53 155 82 235 29 80 56 161 60 180 5 19 11 46 14 59 3
12 9 28 14 35 18 23 74 196 68 211 -3 8 -1 15 4 15 10 0 40 62 44 90 1 8 8 28
14 43 7 16 12 32 12 36 0 5 13 39 29 77 36 85 100 247 135 337 14 37 34 86 45
110 106 239 161 377 161 399 0 13 4 17 13 12 9 -6 9 -5 0 7 -6 8 -12 19 -13
24 -1 6 -7 9 -13 7 -5 -2 -13 1 -16 6 -3 5 -15 6 -26 2z m1942 -4322 c-3 -8
-6 -5 -6 6 -1 11 2 17 5 13 3 -3 4 -12 1 -19z m-3880 -1150 c-3 -7 -5 -2 -5
12 0 14 2 19 5 13 2 -7 2 -19 0 -25z m-100 -330 c-3 -8 -6 -5 -6 6 -1 11 2 17
5 13 3 -3 4 -12 1 -19z"/>
<path d="M847 7259 c7 -7 15 -10 18 -7 3 3 -2 9 -12 12 -14 6 -15 5 -6 -5z"/>
<path d="M6777 7262 c-9 -2 -15 -8 -12 -13 4 -5 2 -9 -3 -9 -14 0 -8 -41 23
-160 15 -58 28 -112 30 -120 2 -8 10 -35 18 -60 8 -25 20 -65 27 -90 6 -25 25
-86 41 -136 16 -50 40 -126 53 -170 13 -43 43 -131 66 -194 22 -63 48 -135 57
-160 8 -25 20 -51 25 -57 6 -7 8 -13 4 -13 -4 0 3 -18 14 -40 11 -22 18 -40
16 -40 -6 0 87 -227 115 -281 13 -24 22 -47 21 -50 0 -4 25 -59 57 -122 32
-64 55 -114 51 -112 -6 4 32 -75 67 -140 6 -11 19 -38 29 -60 11 -22 37 -71
58 -108 22 -38 41 -77 43 -88 2 -11 17 -46 35 -77 17 -31 53 -100 80 -152 47
-94 71 -137 119 -215 13 -22 24 -42 24 -45 0 -6 47 -83 54 -90 4 -3 15 -23 27
-45 32 -62 142 -238 229 -365 42 -63 78 -120 79 -127 1 -7 13 -27 27 -45 13
-18 36 -53 51 -78 15 -25 33 -45 40 -45 7 0 14 -10 16 -22 2 -13 11 -28 21
-35 18 -13 21 -18 21 -39 0 -5 5 -7 10 -4 6 3 10 -3 10 -15 0 -11 11 -32 25
-45 13 -14 22 -25 19 -25 -3 0 4 -10 16 -22 11 -12 20 -26 20 -31 0 -17 141
-200 187 -243 13 -12 20 -23 17 -26 -2 -3 15 -26 39 -51 24 -24 47 -52 50 -61
4 -9 16 -16 27 -16 13 0 20 -7 20 -20 0 -13 5 -18 15 -14 11 5 13 2 8 -12 -4
-12 -3 -15 5 -10 7 4 12 2 12 -3 0 -6 7 -11 15 -11 8 0 15 -4 15 -10 0 -5 11
-10 24 -10 13 0 26 -5 28 -10 2 -6 9 -1 16 11 8 12 9 18 4 15 -9 -5 -22 43
-23 87 0 10 -9 23 -20 30 -10 6 -19 18 -19 25 0 22 -42 102 -51 96 -5 -3 -9 4
-9 15 0 12 -4 21 -10 21 -5 0 -10 5 -10 11 0 5 5 7 11 3 8 -4 7 0 -1 15 -6 12
-16 18 -22 15 -6 -4 -8 -3 -5 4 8 11 -23 72 -36 72 -5 0 -6 4 -3 9 3 5 -1 14
-9 21 -8 7 -15 19 -15 27 0 17 -69 123 -80 123 -4 0 -11 12 -15 27 -3 15 -10
30 -14 33 -7 6 -40 55 -57 86 -21 40 -92 123 -98 116 -4 -3 -4 0 -1 9 5 12
-25 61 -82 134 -4 6 -14 22 -22 38 -8 15 -18 27 -23 27 -5 0 -6 5 -3 10 3 6 1
10 -4 10 -6 0 -11 7 -11 15 0 8 -5 15 -11 15 -5 0 -7 5 -4 10 3 6 2 10 -3 10
-5 0 -22 20 -37 45 -16 24 -33 41 -38 38 -6 -3 -7 -1 -3 5 4 7 2 17 -4 24 -12
15 -132 215 -160 268 -10 19 -32 49 -48 66 -16 16 -33 41 -36 55 -13 43 -29
68 -40 62 -6 -3 -8 -3 -4 2 9 10 -50 123 -163 310 -10 17 -31 56 -47 88 -16
31 -32 54 -37 50 -4 -5 -6 -2 -3 6 2 8 -6 33 -18 55 -13 23 -35 65 -49 94 -15
28 -31 52 -36 52 -6 0 -7 5 -4 10 3 6 2 10 -4 10 -5 0 -12 14 -16 30 -4 17
-11 27 -16 24 -6 -3 -9 0 -8 7 4 22 -12 69 -21 64 -4 -3 -11 2 -14 11 -4 10
-2 13 7 7 6 -4 4 4 -6 17 -10 14 -20 33 -24 43 -3 9 -10 17 -15 17 -5 0 -7 4
-3 9 3 6 -8 32 -24 58 -16 26 -31 54 -33 62 -2 8 -11 23 -21 33 -10 10 -15 23
-12 28 3 5 -4 25 -15 45 -11 19 -20 42 -20 50 0 8 -5 15 -12 15 -6 0 -9 3 -5
6 3 4 0 19 -9 35 -8 16 -15 32 -16 36 -1 5 -8 14 -15 21 -7 7 -13 20 -13 28 0
8 -16 49 -35 90 -19 41 -35 77 -35 80 0 3 -10 20 -22 37 -12 17 -16 27 -9 23
10 -7 11 -4 2 13 -7 11 -15 21 -19 21 -4 0 -8 8 -9 18 -1 9 -17 55 -36 102
-19 47 -46 119 -61 160 -16 41 -36 93 -46 115 -10 22 -28 73 -40 113 -12 39
-26 72 -31 72 -6 0 -7 5 -3 11 3 6 2 21 -4 32 -6 12 -29 81 -52 152 -55 176
-63 189 -113 177z"/>
<path d="M763 7238 c-30 -8 -48 -38 -23 -38 6 0 10 8 10 17 0 13 3 14 12 5 13
-13 -6 -42 -28 -42 -8 0 -14 -5 -14 -12 0 -7 -7 -32 -17 -56 -12 -31 -19 -39
-25 -30 -6 8 -7 4 -2 -12 8 -32 8 -32 28 -24 9 3 16 17 16 31 0 34 18 19 26
-22 3 -19 10 -33 14 -30 5 3 11 1 14 -4 4 -5 24 -8 47 -7 33 3 43 -1 56 -20
10 -16 22 -22 37 -20 11 3 25 5 29 5 4 1 3 10 -3 20 -7 14 -7 20 2 23 7 3 9
12 5 21 -6 16 -9 16 -31 2 -16 -11 -26 -13 -31 -6 -3 6 -1 11 4 11 14 0 14 57
1 65 -5 3 -10 15 -10 26 0 10 -4 19 -10 19 -5 0 -10 5 -10 10 0 6 8 10 19 10
13 0 20 -10 25 -32 5 -25 9 -29 16 -19 12 20 -15 69 -45 83 -14 6 -25 15 -25
20 0 4 -4 8 -9 8 -5 0 -7 -9 -4 -20 3 -12 0 -20 -6 -20 -7 0 -10 4 -7 9 3 4
-2 15 -12 23 -13 11 -25 13 -49 6z m51 -73 c14 -10 17 -18 10 -25 -15 -15 -41
-3 -47 21 -6 23 10 24 37 4z"/>
<path d="M637 7224 c3 -9 9 -12 12 -7 3 4 10 11 15 16 5 4 0 7 -12 7 -15 0
-20 -4 -15 -16z"/>
<path d="M560 7195 c-14 -16 -3 -20 19 -6 8 5 9 11 3 15 -5 3 -15 -1 -22 -9z"/>
<path d="M542 7034 c-9 -17 -9 -24 2 -33 10 -9 15 -8 20 4 4 12 14 14 42 9 27
-5 35 -4 30 5 -4 6 -22 11 -41 11 -18 0 -35 6 -37 12 -3 8 -9 5 -16 -8z"/>
<path d="M1117 7018 c-3 -7 9 -25 27 -40 23 -21 27 -28 14 -28 -14 0 -16 -6
-12 -29 4 -16 1 -32 -5 -35 -21 -14 -11 -21 29 -20 22 0 45 5 52 12 6 6 16 8
22 6 6 -2 19 9 29 25 17 29 17 30 -3 36 -11 4 -18 10 -16 13 6 10 -14 34 -44
55 -29 20 -86 23 -93 5z m70 -122 c-2 -6 -12 -12 -23 -13 -10 -2 -13 0 -6 3 6
3 10 9 8 13 -3 4 2 8 10 8 8 0 13 -5 11 -11z"/>
<path d="M1016 6996 c-9 -14 -16 -30 -16 -36 0 -13 27 -13 35 0 3 5 11 7 18 5
29 -10 77 -13 71 -4 -3 5 -12 9 -20 9 -8 0 -14 5 -14 11 0 6 -7 17 -15 25 -10
10 -15 11 -15 3 0 -8 -3 -9 -14 0 -10 9 -17 6 -30 -13z"/>
<path d="M5219 4943 c-13 -16 -12 -17 4 -4 9 7 17 15 17 17 0 8 -8 3 -21 -13z"/>
<path d="M4643 3353 c-15 -5 -17 -23 -4 -23 5 0 11 7 15 15 3 8 4 15 3 14 -1
0 -8 -3 -14 -6z"/>
</g>
</svg>
